# xmcd CD database file
#
# Track frame offsets:
#	150
#	16470
#	29560
#	44510
#	58165
#	71830
#	77890
#	89715
#	110890
#	120865
#	138345
#	148300
#	160635
#
# Disc length: 2391 seconds
#
# Revision: 0
# Processed by: cddbd v1.4PL0 Copyright (c) Steve Scherf et al.
# Submitted via: CDex 1.50
#
DISCID=c209550d
DTITLE=Luis Nassif - Roda de choro
DYEAR=1996
DGENRE=Chorinho
TTITLE0=Remeleixo
TTITLE1=Bambino
TTITLE2=Assanhado
TTITLE3=Louca
TTITLE4=Cochichando
TTITLE5=El marabino
TTITLE6=Proesas de Solon
TTITLE7=Subindo ao ceu
TTITLE8=Pinicadinho
TTITLE9=Murmurando
TTITLE10=Treme, treme
TTITLE11=O nò
TTITLE12=Feia
EXTD=YEAR: 1996
EXTT0=
EXTT1=
EXTT2=
EXTT3=
EXTT4=
EXTT5=
EXTT6=
EXTT7=
EXTT8=
EXTT9=
EXTT10=
EXTT11=
EXTT12=
PLAYORDER=
